<mxfile host="app.diagrams.net" agent="Mozilla/5.0 (X11; Ubuntu; Linux x86_64; rv:129.0) Gecko/20100101 Firefox/129.0" version="24.7.10">
  <diagram name="Page-1" id="7IMjvl0y4tT5OMlrt00g">
    <mxGraphModel dx="682" dy="436" grid="1" gridSize="1" guides="1" tooltips="1" connect="1" arrows="1" fold="1" page="1" pageScale="1" pageWidth="850" pageHeight="1100" math="0" shadow="0">
      <root>
        <mxCell id="0" />
        <mxCell id="1" parent="0" />
        <mxCell id="oQUfwaXS33LX4lJVDSWq-2" style="edgeStyle=orthogonalEdgeStyle;rounded=0;orthogonalLoop=1;jettySize=auto;html=1;entryX=0;entryY=0.5;entryDx=0;entryDy=0;strokeColor=#D81B60;strokeWidth=3;" edge="1" parent="1" source="oQUfwaXS33LX4lJVDSWq-3" target="oQUfwaXS33LX4lJVDSWq-5">
          <mxGeometry relative="1" as="geometry" />
        </mxCell>
        <mxCell id="oQUfwaXS33LX4lJVDSWq-18" style="edgeStyle=orthogonalEdgeStyle;rounded=0;orthogonalLoop=1;jettySize=auto;html=1;exitX=0.25;exitY=1;exitDx=0;exitDy=0;startArrow=classic;startFill=1;endArrow=none;endFill=0;strokeWidth=3;strokeColor=#785EF0;" edge="1" parent="1" source="oQUfwaXS33LX4lJVDSWq-3">
          <mxGeometry relative="1" as="geometry">
            <mxPoint x="90" y="213.66666666666663" as="targetPoint" />
          </mxGeometry>
        </mxCell>
        <mxCell id="oQUfwaXS33LX4lJVDSWq-19" value="i_weight" style="edgeLabel;html=1;align=center;verticalAlign=middle;resizable=0;points=[];labelBackgroundColor=none;" vertex="1" connectable="0" parent="oQUfwaXS33LX4lJVDSWq-18">
          <mxGeometry x="0.7424" y="-2" relative="1" as="geometry">
            <mxPoint x="11" y="-12" as="offset" />
          </mxGeometry>
        </mxCell>
        <mxCell id="oQUfwaXS33LX4lJVDSWq-3" value="" style="shape=trapezoid;perimeter=trapezoidPerimeter;whiteSpace=wrap;html=1;fixedSize=1;rotation=90;fillColor=#FFC107;" vertex="1" parent="1">
          <mxGeometry x="122.5" y="225" width="105" height="30" as="geometry" />
        </mxCell>
        <mxCell id="oQUfwaXS33LX4lJVDSWq-4" value="&lt;div&gt;A&lt;/div&gt;&lt;div&gt;D&lt;/div&gt;&lt;div&gt;D&lt;br&gt;&lt;/div&gt;" style="text;html=1;align=center;verticalAlign=middle;whiteSpace=wrap;rounded=0;" vertex="1" parent="1">
          <mxGeometry x="167.5" y="225" width="15" height="30" as="geometry" />
        </mxCell>
        <mxCell id="oQUfwaXS33LX4lJVDSWq-13" style="edgeStyle=orthogonalEdgeStyle;rounded=0;orthogonalLoop=1;jettySize=auto;html=1;exitX=1;exitY=0.5;exitDx=0;exitDy=0;entryX=0.25;entryY=1;entryDx=0;entryDy=0;strokeWidth=3;strokeColor=#D81B60;" edge="1" parent="1" source="oQUfwaXS33LX4lJVDSWq-5" target="oQUfwaXS33LX4lJVDSWq-12">
          <mxGeometry relative="1" as="geometry" />
        </mxCell>
        <mxCell id="oQUfwaXS33LX4lJVDSWq-20" style="edgeStyle=orthogonalEdgeStyle;rounded=0;orthogonalLoop=1;jettySize=auto;html=1;exitX=1;exitY=0.5;exitDx=0;exitDy=0;entryX=0.75;entryY=1;entryDx=0;entryDy=0;strokeWidth=3;strokeColor=#D81B60;" edge="1" parent="1" source="oQUfwaXS33LX4lJVDSWq-5" target="oQUfwaXS33LX4lJVDSWq-3">
          <mxGeometry relative="1" as="geometry">
            <Array as="points">
              <mxPoint x="315" y="240" />
              <mxPoint x="315" y="300" />
              <mxPoint x="140" y="300" />
              <mxPoint x="140" y="266" />
            </Array>
          </mxGeometry>
        </mxCell>
        <mxCell id="oQUfwaXS33LX4lJVDSWq-50" style="edgeStyle=orthogonalEdgeStyle;rounded=0;orthogonalLoop=1;jettySize=auto;html=1;exitX=1;exitY=0.5;exitDx=0;exitDy=0;entryX=0.25;entryY=1;entryDx=0;entryDy=0;strokeColor=#D81B60;strokeWidth=3;" edge="1" parent="1" source="oQUfwaXS33LX4lJVDSWq-5" target="oQUfwaXS33LX4lJVDSWq-41">
          <mxGeometry relative="1" as="geometry">
            <Array as="points">
              <mxPoint x="324" y="240" />
              <mxPoint x="324" y="101" />
            </Array>
          </mxGeometry>
        </mxCell>
        <mxCell id="oQUfwaXS33LX4lJVDSWq-5" value="V_mem" style="rounded=0;whiteSpace=wrap;html=1;fillColor=#FE6100;" vertex="1" parent="1">
          <mxGeometry x="225" y="220" width="70" height="40" as="geometry" />
        </mxCell>
        <mxCell id="oQUfwaXS33LX4lJVDSWq-8" value="" style="endArrow=classic;html=1;rounded=0;strokeColor=#785EF0;strokeWidth=3;" edge="1" parent="1">
          <mxGeometry width="50" height="50" relative="1" as="geometry">
            <mxPoint x="174.8" y="130" as="sourcePoint" />
            <mxPoint x="174.8" y="190" as="targetPoint" />
          </mxGeometry>
        </mxCell>
        <mxCell id="oQUfwaXS33LX4lJVDSWq-9" value="i_spike_flag" style="edgeLabel;html=1;align=center;verticalAlign=middle;resizable=0;points=[];labelBackgroundColor=none;" vertex="1" connectable="0" parent="oQUfwaXS33LX4lJVDSWq-8">
          <mxGeometry x="-0.6267" y="-1" relative="1" as="geometry">
            <mxPoint x="1" y="-16" as="offset" />
          </mxGeometry>
        </mxCell>
        <mxCell id="oQUfwaXS33LX4lJVDSWq-10" value="Weight update" style="text;html=1;align=center;verticalAlign=middle;whiteSpace=wrap;rounded=0;" vertex="1" parent="1">
          <mxGeometry x="55" y="105" width="60" height="30" as="geometry" />
        </mxCell>
        <mxCell id="oQUfwaXS33LX4lJVDSWq-23" style="edgeStyle=orthogonalEdgeStyle;rounded=0;orthogonalLoop=1;jettySize=auto;html=1;exitX=0.5;exitY=0;exitDx=0;exitDy=0;entryX=0.25;entryY=1;entryDx=0;entryDy=0;strokeWidth=3;strokeColor=#D81B60;" edge="1" parent="1" source="oQUfwaXS33LX4lJVDSWq-12" target="oQUfwaXS33LX4lJVDSWq-21">
          <mxGeometry relative="1" as="geometry" />
        </mxCell>
        <mxCell id="oQUfwaXS33LX4lJVDSWq-12" value="" style="shape=trapezoid;perimeter=trapezoidPerimeter;whiteSpace=wrap;html=1;fixedSize=1;rotation=90;fillColor=#FFC107;" vertex="1" parent="1">
          <mxGeometry x="331.25" y="250" width="97.5" height="30" as="geometry" />
        </mxCell>
        <mxCell id="oQUfwaXS33LX4lJVDSWq-15" style="edgeStyle=orthogonalEdgeStyle;rounded=0;orthogonalLoop=1;jettySize=auto;html=1;exitX=1;exitY=0.5;exitDx=0;exitDy=0;entryX=0.75;entryY=1;entryDx=0;entryDy=0;strokeColor=#D81B60;strokeWidth=3;" edge="1" parent="1" source="oQUfwaXS33LX4lJVDSWq-14" target="oQUfwaXS33LX4lJVDSWq-12">
          <mxGeometry relative="1" as="geometry" />
        </mxCell>
        <mxCell id="oQUfwaXS33LX4lJVDSWq-14" value="V_leak" style="rounded=0;whiteSpace=wrap;html=1;fillColor=#FE6100;" vertex="1" parent="1">
          <mxGeometry x="251" y="305" width="70" height="40" as="geometry" />
        </mxCell>
        <mxCell id="oQUfwaXS33LX4lJVDSWq-16" value="&lt;div&gt;S&lt;/div&gt;&lt;div&gt;U&lt;/div&gt;&lt;div&gt;B&lt;br&gt;&lt;/div&gt;" style="text;html=1;align=center;verticalAlign=middle;whiteSpace=wrap;rounded=0;" vertex="1" parent="1">
          <mxGeometry x="375" y="250" width="10" height="30" as="geometry" />
        </mxCell>
        <mxCell id="oQUfwaXS33LX4lJVDSWq-21" value="" style="shape=trapezoid;perimeter=trapezoidPerimeter;whiteSpace=wrap;html=1;fixedSize=1;rotation=90;fillColor=#FFC107;" vertex="1" parent="1">
          <mxGeometry x="410" y="295" width="97.5" height="30" as="geometry" />
        </mxCell>
        <mxCell id="oQUfwaXS33LX4lJVDSWq-22" value="&amp;lt;" style="text;html=1;align=center;verticalAlign=middle;whiteSpace=wrap;rounded=0;" vertex="1" parent="1">
          <mxGeometry x="453.75" y="295" width="10" height="30" as="geometry" />
        </mxCell>
        <mxCell id="oQUfwaXS33LX4lJVDSWq-26" style="edgeStyle=orthogonalEdgeStyle;rounded=0;orthogonalLoop=1;jettySize=auto;html=1;exitX=1;exitY=0.5;exitDx=0;exitDy=0;entryX=0.75;entryY=1;entryDx=0;entryDy=0;strokeWidth=3;strokeColor=#D81B60;" edge="1" parent="1" source="oQUfwaXS33LX4lJVDSWq-25" target="oQUfwaXS33LX4lJVDSWq-21">
          <mxGeometry relative="1" as="geometry">
            <Array as="points">
              <mxPoint x="424" y="365" />
              <mxPoint x="424" y="335" />
              <mxPoint x="444" y="335" />
            </Array>
          </mxGeometry>
        </mxCell>
        <mxCell id="oQUfwaXS33LX4lJVDSWq-25" value="V_min" style="rounded=0;whiteSpace=wrap;html=1;fillColor=#FE6100;" vertex="1" parent="1">
          <mxGeometry x="335" y="345" width="70" height="40" as="geometry" />
        </mxCell>
        <mxCell id="oQUfwaXS33LX4lJVDSWq-34" style="edgeStyle=orthogonalEdgeStyle;rounded=0;orthogonalLoop=1;jettySize=auto;html=1;exitX=0.5;exitY=0;exitDx=0;exitDy=0;strokeColor=#1E88E5;strokeWidth=3;" edge="1" parent="1" source="oQUfwaXS33LX4lJVDSWq-27">
          <mxGeometry relative="1" as="geometry">
            <mxPoint x="575.0000000000002" y="205.09523809523807" as="targetPoint" />
          </mxGeometry>
        </mxCell>
        <mxCell id="oQUfwaXS33LX4lJVDSWq-35" value="o_spike_flag" style="edgeLabel;html=1;align=center;verticalAlign=middle;resizable=0;points=[];" vertex="1" connectable="0" parent="oQUfwaXS33LX4lJVDSWq-34">
          <mxGeometry x="0.1738" y="1" relative="1" as="geometry">
            <mxPoint x="34" y="-15" as="offset" />
          </mxGeometry>
        </mxCell>
        <mxCell id="oQUfwaXS33LX4lJVDSWq-27" value="" style="shape=trapezoid;perimeter=trapezoidPerimeter;whiteSpace=wrap;html=1;fixedSize=1;rotation=90;fillColor=#FFC107;" vertex="1" parent="1">
          <mxGeometry x="410" y="190" width="97.5" height="30" as="geometry" />
        </mxCell>
        <mxCell id="oQUfwaXS33LX4lJVDSWq-28" value="&amp;gt;" style="text;html=1;align=center;verticalAlign=middle;whiteSpace=wrap;rounded=0;" vertex="1" parent="1">
          <mxGeometry x="453.75" y="190" width="10" height="30" as="geometry" />
        </mxCell>
        <mxCell id="oQUfwaXS33LX4lJVDSWq-30" style="edgeStyle=orthogonalEdgeStyle;rounded=0;orthogonalLoop=1;jettySize=auto;html=1;exitX=0.5;exitY=0;exitDx=0;exitDy=0;strokeWidth=3;strokeColor=#D81B60;" edge="1" parent="1" source="oQUfwaXS33LX4lJVDSWq-12">
          <mxGeometry relative="1" as="geometry">
            <mxPoint x="445" y="233" as="targetPoint" />
          </mxGeometry>
        </mxCell>
        <mxCell id="oQUfwaXS33LX4lJVDSWq-33" style="edgeStyle=orthogonalEdgeStyle;rounded=0;orthogonalLoop=1;jettySize=auto;html=1;exitX=1;exitY=0.5;exitDx=0;exitDy=0;entryX=0.25;entryY=1;entryDx=0;entryDy=0;" edge="1" parent="1" source="oQUfwaXS33LX4lJVDSWq-32" target="oQUfwaXS33LX4lJVDSWq-27">
          <mxGeometry relative="1" as="geometry" />
        </mxCell>
        <mxCell id="oQUfwaXS33LX4lJVDSWq-32" value="V_threshold" style="rounded=0;whiteSpace=wrap;html=1;fillColor=#FE6100;" vertex="1" parent="1">
          <mxGeometry x="335" y="160" width="70" height="40" as="geometry" />
        </mxCell>
        <mxCell id="oQUfwaXS33LX4lJVDSWq-48" style="edgeStyle=orthogonalEdgeStyle;rounded=0;orthogonalLoop=1;jettySize=auto;html=1;exitX=0.175;exitY=0.25;exitDx=0;exitDy=0;exitPerimeter=0;entryX=0.5;entryY=0;entryDx=0;entryDy=0;startArrow=classic;startFill=1;endArrow=none;endFill=0;strokeColor=#1E88E5;strokeWidth=3;" edge="1" parent="1" source="oQUfwaXS33LX4lJVDSWq-36" target="oQUfwaXS33LX4lJVDSWq-27">
          <mxGeometry relative="1" as="geometry">
            <Array as="points">
              <mxPoint x="457" y="146" />
              <mxPoint x="494" y="146" />
              <mxPoint x="494" y="205" />
            </Array>
          </mxGeometry>
        </mxCell>
        <mxCell id="oQUfwaXS33LX4lJVDSWq-55" style="edgeStyle=orthogonalEdgeStyle;rounded=0;orthogonalLoop=1;jettySize=auto;html=1;exitX=1;exitY=0.5;exitDx=0;exitDy=0;exitPerimeter=0;entryX=0;entryY=0.25;entryDx=0;entryDy=0;strokeColor=#D81B60;strokeWidth=3;" edge="1" parent="1" source="oQUfwaXS33LX4lJVDSWq-36" target="oQUfwaXS33LX4lJVDSWq-41">
          <mxGeometry relative="1" as="geometry">
            <Array as="points">
              <mxPoint x="290" y="138" />
            </Array>
          </mxGeometry>
        </mxCell>
        <mxCell id="oQUfwaXS33LX4lJVDSWq-36" value="" style="shape=xor;whiteSpace=wrap;html=1;rotation=-180;fillColor=#FFC107;" vertex="1" parent="1">
          <mxGeometry x="409" y="123" width="25" height="30" as="geometry" />
        </mxCell>
        <mxCell id="oQUfwaXS33LX4lJVDSWq-43" style="edgeStyle=orthogonalEdgeStyle;rounded=0;orthogonalLoop=1;jettySize=auto;html=1;exitX=0.5;exitY=0;exitDx=0;exitDy=0;entryX=0.5;entryY=0;entryDx=0;entryDy=0;strokeWidth=3;strokeColor=#D81B60;" edge="1" parent="1" source="oQUfwaXS33LX4lJVDSWq-41" target="oQUfwaXS33LX4lJVDSWq-5">
          <mxGeometry relative="1" as="geometry">
            <Array as="points">
              <mxPoint x="260" y="77" />
            </Array>
          </mxGeometry>
        </mxCell>
        <mxCell id="oQUfwaXS33LX4lJVDSWq-41" value="" style="shape=trapezoid;perimeter=trapezoidPerimeter;whiteSpace=wrap;html=1;fixedSize=1;rotation=-90;fillColor=#FFC107;" vertex="1" parent="1">
          <mxGeometry x="242" y="62" width="97.5" height="30" as="geometry" />
        </mxCell>
        <mxCell id="oQUfwaXS33LX4lJVDSWq-49" style="edgeStyle=orthogonalEdgeStyle;rounded=0;orthogonalLoop=1;jettySize=auto;html=1;exitX=0.5;exitY=0;exitDx=0;exitDy=0;entryX=0.175;entryY=0.75;entryDx=0;entryDy=0;entryPerimeter=0;strokeWidth=3;strokeColor=#D81B60;" edge="1" parent="1" source="oQUfwaXS33LX4lJVDSWq-21" target="oQUfwaXS33LX4lJVDSWq-36">
          <mxGeometry relative="1" as="geometry">
            <Array as="points">
              <mxPoint x="510" y="310" />
              <mxPoint x="510" y="131" />
            </Array>
          </mxGeometry>
        </mxCell>
        <mxCell id="oQUfwaXS33LX4lJVDSWq-52" style="edgeStyle=orthogonalEdgeStyle;rounded=0;orthogonalLoop=1;jettySize=auto;html=1;exitX=0;exitY=0.5;exitDx=0;exitDy=0;entryX=0.75;entryY=1;entryDx=0;entryDy=0;strokeColor=#D81B60;strokeWidth=3;" edge="1" parent="1" source="oQUfwaXS33LX4lJVDSWq-51" target="oQUfwaXS33LX4lJVDSWq-41">
          <mxGeometry relative="1" as="geometry" />
        </mxCell>
        <mxCell id="oQUfwaXS33LX4lJVDSWq-51" value="V_rest" style="rounded=0;whiteSpace=wrap;html=1;fillColor=#FE6100;" vertex="1" parent="1">
          <mxGeometry x="351" y="33" width="70" height="40" as="geometry" />
        </mxCell>
        <mxCell id="oQUfwaXS33LX4lJVDSWq-53" value="0" style="text;html=1;align=center;verticalAlign=middle;whiteSpace=wrap;rounded=0;" vertex="1" parent="1">
          <mxGeometry x="291" y="95" width="11" height="13" as="geometry" />
        </mxCell>
        <mxCell id="oQUfwaXS33LX4lJVDSWq-54" value="1" style="text;html=1;align=center;verticalAlign=middle;whiteSpace=wrap;rounded=0;" vertex="1" parent="1">
          <mxGeometry x="293" y="46" width="10" height="12" as="geometry" />
        </mxCell>
      </root>
    </mxGraphModel>
  </diagram>
</mxfile>
